<svg viewBox="0 0 1280 800" xmlns="http://www.w3.org/2000/svg">
  <defs>
    <linearGradient id="bgBL" x1="0" y1="0" x2="0" y2="1">
      <stop offset="0%" stop-color="#0E0C0A"></stop>
      <stop offset="100%" stop-color="#1D1814"></stop>
    </linearGradient>
    <linearGradient id="hrColor" x1="0" y1="0" x2="1" y2="0">
      <stop offset="0%" stop-color="#E84B1A"></stop>
      <stop offset="100%" stop-color="#F0A03A"></stop>
    </linearGradient>
  </defs>
  <rect fill="url(#bgBL)" width="1280" height="800"></rect>

  
  <g transform="translate(48, 540)">
    <g fill="#3D3833">
      <rect x="0" y="80" width="18" height="60"></rect>
      <rect x="28" y="60" width="18" height="80"></rect>
      <rect x="56" y="30" width="18" height="110"></rect>
      <rect x="84" y="20" width="18" height="120"></rect>
      <rect x="112" y="50" width="18" height="90"></rect>
      <rect x="140" y="10" width="18" height="130"></rect>
      <rect x="168" y="40" width="18" height="100"></rect>
    </g>
    <g fill="#E84B1A">
      <rect x="196" y="0" width="18" height="140"></rect>
      <rect x="224" y="20" width="18" height="120"></rect>
      <rect x="252" y="10" width="18" height="130"></rect>
    </g>
    <g fill="#3D3833">
      <rect x="280" y="30" width="18" height="110"></rect>
      <rect x="308" y="50" width="18" height="90"></rect>
      <rect x="336" y="40" width="18" height="100"></rect>
      <rect x="364" y="60" width="18" height="80"></rect>
      <rect x="392" y="70" width="18" height="70"></rect>
    </g>
  </g>

  
  <path d="M 0 380 L 220 380 L 250 380 L 270 320 L 296 460 L 326 220 L 354 480 L 386 320 L 420 380 L 1280 380" stroke="url(#hrColor)" stroke-width="3.5" fill="none" stroke-linecap="round" stroke-linejoin="round"></path>

  
  <circle cx="326" cy="220" r="8" fill="#E84B1A">
  </circle>

  
  <g font-family="JetBrains Mono, monospace" letter-spacing="2" fill="#F4EEE4" text-anchor="end">
    <text x="1232" y="92" font-size="56" font-family="Instrument Serif, serif" font-style="italic">132</text>
    <text x="1232" y="120" font-size="11" fill="#807A72">BPM · NOW</text>
    <text x="1232" y="170" font-size="36" font-family="Instrument Serif, serif" font-style="italic">8.4k</text>
    <text x="1232" y="194" font-size="11" fill="#807A72">STEPS TODAY</text>
  </g>

  
  <text x="48" y="68" font-family="JetBrains Mono, monospace" font-size="13" letter-spacing="3" fill="#807A72">BODY-LIFE.APP</text>
  <text x="48" y="92" font-family="JetBrains Mono, monospace" font-size="13" letter-spacing="3" fill="#E84B1A">HCI · REACT · NEXT.JS</text>

  <line x1="48" y1="700" x2="160" y2="700" stroke="#E84B1A" stroke-width="1"></line>
  <text x="48" y="744" font-family="Instrument Serif, serif" font-style="italic" font-size="44" fill="#F4EEE4">BODY-LIFE</text>
  <text x="48" y="772" font-family="JetBrains Mono, monospace" font-size="11" letter-spacing="3" fill="#807A72">DASHBOARD · WORKOUT · UX/UI · MONITORING</text>
</svg>