<svg viewBox="0 0 1280 800" xmlns="http://www.w3.org/2000/svg">
  <defs>
    <linearGradient id="paperBF" x1="0" y1="0" x2="0" y2="1">
      <stop offset="0%" stop-color="#F4EFE3"></stop>
      <stop offset="100%" stop-color="#E8E0CD"></stop>
    </linearGradient>
  </defs>
  <rect fill="url(#paperBF)" width="1280" height="800"></rect>

  
  <g stroke="#B43A1A" stroke-width="2.4" fill="none">
    <path d="M 880 80 q 180 60 220 240" opacity="0.85"></path>
    <path d="M 880 80 q 240 80 300 280" opacity="0.55"></path>
    <path d="M 880 80 q 300 100 380 320" opacity="0.30"></path>
  </g>
  <circle cx="880" cy="80" r="10" fill="#B43A1A"></circle>
  <text x="900" y="78" font-family="JetBrains Mono, monospace" font-size="12" letter-spacing="3" fill="#B43A1A">RFID</text>

  
  <g transform="translate(48, 340)">
    <rect x="0" y="0" width="42" height="320" fill="#1E6938"></rect>
    <rect x="50" y="40" width="56" height="280" fill="#B43A1A"></rect>
    <rect x="114" y="20" width="38" height="300" fill="#3D3833"></rect>
    <rect x="160" y="60" width="60" height="260" fill="#D6B774"></rect>
    <rect x="228" y="0" width="44" height="320" fill="#A0501C"></rect>
    <rect x="280" y="30" width="34" height="290" fill="#1E6938"></rect>
    <rect x="322" y="10" width="50" height="310" fill="#FBF8F0" stroke="#1414100E" stroke-width="2"></rect>
    <rect x="380" y="50" width="42" height="270" fill="#3D3833"></rect>
    <rect x="430" y="0" width="56" height="320" fill="#B43A1A"></rect>
    <rect x="494" y="40" width="32" height="280" fill="#D6B774"></rect>
    <rect x="534" y="20" width="48" height="300" fill="#1E6938"></rect>
    <rect x="590" y="0" width="42" height="320" fill="#A0501C"></rect>
    <rect x="640" y="60" width="56" height="260" fill="#3D3833"></rect>
    <rect x="704" y="20" width="36" height="300" fill="#B43A1A"></rect>
    <rect x="748" y="40" width="48" height="280" fill="#D6B774"></rect>
    <rect x="804" y="0" width="44" height="320" fill="#1E6938"></rect>
    <rect x="856" y="30" width="58" height="290" fill="#3D3833"></rect>
    <rect x="922" y="10" width="40" height="310" fill="#A0501C"></rect>
    <rect x="970" y="50" width="52" height="270" fill="#B43A1A"></rect>
    <rect x="1030" y="0" width="36" height="320" fill="#D6B774"></rect>
    <rect x="1074" y="40" width="48" height="280" fill="#1E6938"></rect>
    <rect x="1130" y="20" width="42" height="300" fill="#3D3833"></rect>
    <rect x="1180" y="0" width="52" height="320" fill="#B43A1A"></rect>
  </g>

  
  <text x="48" y="68" font-family="JetBrains Mono, monospace" font-size="13" letter-spacing="3" fill="#7C7569">BIBLIOFLOW.APP</text>
  <text x="48" y="92" font-family="JetBrains Mono, monospace" font-size="13" letter-spacing="3" fill="#B43A1A">HCI · A11Y · IOT</text>

  <line x1="48" y1="700" x2="160" y2="700" stroke="#B43A1A" stroke-width="1"></line>
  <text x="48" y="744" font-family="Instrument Serif, serif" font-style="italic" font-size="44" fill="#141210">BiblioFlow</text>
  <text x="48" y="772" font-family="JetBrains Mono, monospace" font-size="11" letter-spacing="3" fill="#7C7569">SENSORI · PRESTITI RFID · CHATBOT · FIGMA</text>
</svg>